<?xml version="1.0" standalone="no"?>
<!DOCTYPE svg PUBLIC "-//W3C//DTD SVG 20010904//EN"
 "http://www.w3.org/TR/2001/REC-SVG-20010904/DTD/svg10.dtd">
<svg version="1.0" xmlns="http://www.w3.org/2000/svg"
 width="954.000000pt" height="1024.000000pt" viewBox="0 0 954.000000 1024.000000"
 preserveAspectRatio="xMidYMid meet">
<metadata>
Created by potrace 1.13, written by Peter Selinger 2001-2015
</metadata>
<g transform="translate(0.000000,1024.000000) scale(0.100000,-0.100000)"
fill="#000000" stroke="none">
<path d="M5439 10230 c-72 -12 -108 -36 -129 -84 -15 -35 -27 -46 -68 -64 -70
-30 -147 -45 -190 -37 -20 3 -86 29 -147 58 -171 80 -251 77 -391 -15 -221
-143 -317 -157 -608 -87 -241 58 -285 52 -533 -75 -70 -36 -148 -72 -172 -81
-59 -21 -141 -19 -285 6 -241 41 -352 16 -495 -115 -134 -124 -214 -140 -446
-91 -153 32 -222 32 -298 1 -75 -31 -113 -58 -222 -156 -54 -49 -103 -84 -125
-90 -46 -13 -169 -13 -285 1 -265 31 -441 -83 -511 -331 -9 -32 -18 -118 -21
-202 l-6 -147 -55 -17 c-153 -44 -253 -131 -277 -242 -4 -21 0 -59 10 -103 21
-83 16 -159 -12 -197 -11 -15 -40 -43 -66 -62 -56 -41 -96 -123 -104 -209 -8
-80 16 -127 117 -236 45 -49 90 -105 98 -125 10 -25 15 -80 16 -200 1 -151 3
-169 25 -213 35 -70 81 -111 186 -162 143 -70 191 -138 220 -315 40 -241 54
-269 189 -373 58 -45 66 -65 81 -204 17 -157 35 -214 135 -412 42 -86 94 -201
114 -256 21 -55 57 -147 82 -203 68 -158 68 -169 -1 -292 -124 -221 -152 -307
-134 -407 10 -56 55 -149 83 -172 7 -6 52 -21 100 -34 101 -26 93 -2 71 -223
-17 -171 -16 -163 -50 -509 -45 -467 -36 -417 -91 -482 -194 -229 -205 -237
-307 -248 -36 -4 -82 -19 -120 -38 -50 -26 -67 -41 -85 -77 -28 -54 -25 -124
6 -186 28 -55 55 -76 107 -81 57 -7 113 14 200 73 36 25 65 40 65 34 0 -16
-123 -136 -199 -195 -102 -79 -125 -113 -129 -193 -3 -62 -1 -70 26 -108 57
-79 169 -106 253 -63 52 26 114 112 201 277 l68 127 0 -145 c0 -222 22 -315
81 -345 78 -41 210 18 265 118 26 47 29 61 28 147 0 52 -4 143 -8 201 -9 115
-2 207 18 235 12 16 16 14 57 -25 93 -91 217 -151 312 -151 106 0 159 59 159
180 1 161 -78 227 -265 219 l-81 -4 -21 75 c-26 91 -43 125 -87 169 -35 36
-120 81 -152 81 -18 0 -19 7 -12 137 4 76 9 139 10 140 4 4 738 73 855 80 l93
6 -5 -39 c-21 -142 -22 -136 25 -183 24 -23 55 -49 71 -57 l27 -15 0 -137 c0
-75 -5 -452 -11 -837 l-11 -700 -39 -39 c-47 -45 -74 -96 -82 -151 -3 -22 -2
-137 2 -255 l7 -215 -33 -28 c-48 -41 -126 -144 -157 -206 -41 -80 -59 -178
-46 -253 22 -141 140 -307 258 -365 150 -74 308 -5 463 200 106 141 158 282
159 432 0 69 1 71 32 90 60 35 166 154 200 223 29 58 33 76 33 147 0 73 -3 85
-34 140 -92 160 -111 206 -111 261 0 67 -16 83 -116 120 -59 21 -85 26 -127
21 l-54 -5 4 761 c2 419 6 767 8 774 2 6 30 17 62 23 172 34 363 100 433 150
31 22 32 25 28 86 -3 48 -13 81 -45 146 -23 46 -39 86 -35 89 7 6 866 179 890
179 8 0 12 -22 12 -70 0 -92 17 -164 46 -199 24 -29 97 -61 138 -61 48 -1 39
59 106 -705 16 -187 32 -369 35 -405 l6 -65 -50 -23 c-118 -53 -211 -161 -246
-284 -21 -74 -24 -232 -6 -323 13 -67 56 -145 120 -217 78 -88 133 -100 186
-43 l32 36 13 -32 c46 -109 178 -263 271 -314 47 -26 64 -29 129 -28 208 2
437 125 507 272 68 143 6 363 -129 461 -55 40 -155 70 -234 70 -61 0 -64 1
-69 28 -30 137 -91 280 -149 346 -15 16 -26 33 -26 38 0 5 -25 205 -56 446
-82 649 -95 754 -92 764 2 5 40 21 86 37 92 32 203 95 244 138 54 57 57 102
15 235 -11 37 -19 69 -16 71 2 2 163 36 357 74 194 39 355 73 357 75 3 2 0
107 -5 234 -40 953 -42 1006 -26 1023 49 54 57 149 26 301 -10 52 -18 95 -17
95 1 1 61 21 133 44 271 87 469 210 534 333 36 67 43 129 25 199 -8 34 -12 66
-8 70 16 14 274 149 532 278 502 251 824 384 1007 413 86 14 173 -3 294 -56
116 -51 186 -61 336 -47 l125 12 51 -46 c90 -81 198 -122 285 -109 54 8 103
46 103 80 0 22 3 23 43 18 98 -12 149 56 126 171 -6 33 -11 71 -11 85 1 14 2
54 4 90 4 88 -19 145 -83 205 -60 57 -127 88 -254 120 -162 41 -435 94 -523
101 l-83 7 8 46 c29 171 -16 288 -132 337 -60 25 -181 30 -230 10 -98 -41
-155 -104 -155 -169 0 -52 45 -99 138 -144 43 -20 78 -38 80 -39 2 -1 -15 -31
-37 -66 -67 -107 -111 -222 -111 -295 0 -31 -2 -33 -72 -53 -758 -221 -1293
-454 -1542 -672 l-40 -34 -41 50 c-23 28 -57 62 -76 74 -73 50 -191 14 -371
-115 -48 -35 -89 -63 -93 -63 -3 0 -5 20 -5 44 0 39 9 58 67 142 91 134 107
177 107 289 -1 71 -6 105 -26 160 -109 298 -102 271 -102 395 0 97 4 130 29
215 23 79 29 120 29 195 0 88 -3 103 -43 205 -151 389 -166 468 -111 620 81
226 89 338 32 459 -21 44 -50 85 -86 120 l-54 52 15 99 c18 123 13 325 -12
403 -19 61 -74 129 -122 149 -35 14 -110 15 -184 3z m171 -62 c55 -28 84 -84
101 -189 12 -80 6 -235 -15 -354 l-12 -70 66 -65 c72 -71 95 -110 112 -195 14
-71 -7 -189 -55 -303 -30 -72 -32 -84 -31 -197 0 -134 5 -152 119 -450 71
-183 75 -239 31 -400 -36 -131 -45 -282 -22 -379 9 -38 37 -121 63 -185 41
-103 47 -126 51 -213 4 -86 2 -102 -20 -150 -14 -29 -41 -73 -60 -98 -103
-135 -113 -184 -67 -320 44 -132 51 -281 19 -425 -35 -158 -35 -176 -1 -340
42 -205 47 -261 28 -307 -23 -54 -47 -64 -186 -77 -216 -20 -354 -57 -522
-140 l-95 -48 -230 -6 c-262 -6 -341 -21 -453 -84 -190 -107 -219 -112 -571
-104 -150 4 -157 3 -220 -24 -36 -15 -128 -49 -205 -76 -77 -27 -177 -63 -222
-80 -90 -34 -109 -35 -297 -9 -145 20 -259 -11 -410 -113 -173 -116 -236 -51
-250 258 -7 138 -11 152 -90 294 -79 142 -94 191 -107 351 -16 200 -26 265
-43 301 -9 19 -56 81 -106 138 -49 58 -104 134 -122 170 l-33 65 -1 165 c-1
217 -16 269 -168 576 -63 127 -120 248 -126 270 -7 22 -15 108 -19 190 -8 175
-17 202 -112 332 -98 135 -103 152 -104 333 0 179 5 163 -115 335 -108 154
-227 346 -273 437 -69 141 -73 234 -13 294 52 52 111 64 325 64 224 0 224 1
361 125 105 95 193 145 269 153 32 3 94 -5 177 -23 83 -18 159 -28 215 -28 75
0 94 3 150 30 38 18 91 56 129 92 130 123 226 148 440 112 138 -23 254 -27
315 -10 22 6 117 49 210 95 242 119 250 120 512 55 67 -16 153 -33 190 -36
126 -12 265 32 416 131 140 92 194 94 361 13 101 -50 113 -53 185 -54 131 0
237 45 276 119 24 45 37 53 107 65 84 14 101 12 148 -11z m-4860 -898 c-41
-80 -20 -210 57 -349 51 -95 156 -261 245 -388 126 -181 123 -173 123 -348 0
-142 1 -153 27 -208 15 -31 54 -95 87 -140 87 -119 93 -138 96 -297 4 -170 19
-221 130 -435 165 -318 186 -386 188 -620 2 -159 2 -161 34 -226 35 -70 87
-141 163 -222 25 -27 53 -63 62 -81 18 -35 33 -135 43 -290 9 -145 36 -233
109 -366 35 -63 68 -131 74 -150 6 -19 13 -89 16 -155 6 -123 20 -196 49 -251
l16 -31 -87 -12 c-48 -6 -120 -14 -159 -17 l-73 -7 0 60 c0 207 -126 574 -212
619 -87 45 -185 -16 -314 -196 l-58 -81 -12 38 c-6 21 -26 69 -44 108 -18 38
-48 115 -67 170 -19 55 -73 175 -119 267 -104 208 -121 257 -137 410 -16 145
-36 191 -103 243 -26 19 -50 35 -54 35 -13 0 -70 92 -80 129 -5 20 -19 90 -30
156 -35 204 -95 296 -235 360 -99 46 -149 86 -174 139 -20 40 -22 63 -24 213
-2 203 -6 213 -132 352 -114 125 -124 163 -73 282 13 31 34 56 63 77 24 17 57
50 72 73 25 39 28 50 27 128 0 47 -4 114 -9 147 -7 54 -5 66 15 102 37 66 178
151 252 152 49 0 58 21 58 138 0 238 57 406 163 483 22 16 42 29 44 29 2 0 -6
-18 -17 -40z m7700 -1133 c91 -44 119 -168 72 -314 l-20 -63 65 0 c36 0 111
-7 167 -15 135 -20 477 -98 548 -124 124 -47 188 -127 188 -234 0 -31 -4 -57
-10 -57 -5 0 -46 25 -92 56 -89 59 -264 149 -312 160 -55 13 -23 -17 49 -45
123 -49 329 -180 352 -225 9 -17 18 -60 21 -96 5 -76 -8 -95 -64 -93 -58 2
-95 23 -186 108 -85 80 -163 129 -225 141 -26 5 -33 3 -33 -8 0 -10 14 -18 39
-22 78 -12 246 -150 282 -231 31 -71 8 -92 -94 -83 -71 6 -138 41 -199 106
-47 50 -53 53 -85 47 -78 -14 -232 -22 -290 -14 -34 5 -98 25 -143 45 -203 89
-319 83 -625 -31 -226 -85 -743 -330 -1105 -525 -84 -45 -156 -78 -160 -73 -4
4 -22 37 -41 72 l-33 64 54 50 c211 194 765 437 1453 637 92 27 172 52 177 55
5 3 4 20 -1 39 -19 68 28 192 124 334 37 54 53 84 44 87 -194 67 -265 121
-239 180 15 32 93 88 135 96 51 11 138 -1 187 -24z m-2105 -1327 c17 -11 51
-47 74 -80 59 -83 158 -279 171 -335 37 -166 -148 -328 -518 -452 -73 -24
-136 -42 -140 -39 -3 4 -9 30 -13 59 -5 38 0 83 17 169 31 150 33 311 5 417
l-19 73 86 63 c105 78 233 145 274 145 17 0 45 -9 63 -20z m-475 -1455 c0
-104 29 -990 35 -1052 6 -72 24 -62 -165 -98 -74 -15 -223 -44 -330 -66 -107
-22 -251 -51 -320 -64 -69 -13 -408 -81 -755 -150 -346 -70 -686 -137 -755
-151 -69 -13 -170 -33 -225 -44 -55 -12 -134 -27 -175 -35 -41 -8 -174 -34
-295 -59 -121 -24 -223 -41 -226 -38 -3 4 -15 54 -28 112 -12 58 -33 152 -46
210 -125 546 -165 723 -165 732 0 4 16 14 34 22 19 8 63 33 96 56 140 95 234
118 388 94 188 -29 177 -29 295 15 l109 41 202 -105 203 -105 113 170 c102
154 116 170 141 170 26 0 29 -3 29 -34 0 -40 17 -95 38 -118 13 -15 13 -29 -2
-115 -10 -54 -24 -120 -31 -148 -8 -27 -17 -67 -20 -87 -7 -42 -13 -48 -64
-59 -20 -4 -90 -18 -156 -32 -150 -31 -263 -55 -292 -62 -18 -4 -23 -12 -23
-40 0 -37 19 -135 26 -135 3 0 62 11 132 25 70 14 163 32 207 40 44 9 90 18
103 20 15 4 22 1 22 -9 0 -12 338 -276 353 -276 4 0 210 405 212 417 0 0 50 7
110 13 61 7 135 15 165 19 l55 6 3 88 c2 66 0 87 -10 87 -7 0 -94 -13 -193
-30 -99 -16 -188 -30 -198 -30 -11 0 -27 19 -45 54 -15 30 -49 96 -75 146
l-48 92 20 22 c32 34 51 91 51 155 0 44 4 60 16 65 20 8 31 0 154 -114 144
-133 132 -127 172 -82 18 21 91 102 161 180 l129 142 63 0 c54 0 74 6 132 36
157 84 349 138 538 153 55 5 108 9 118 10 14 1 17 -8 17 -54z m-4144 -62 c94
-101 184 -439 171 -643 -5 -80 -12 -105 -57 -205 -21 -45 -70 -95 -117 -119
-60 -30 -63 -26 -62 74 l1 90 34 0 c19 0 34 5 34 10 0 6 -19 31 -41 55 -68 74
-152 83 -253 27 -58 -32 -70 -52 -31 -52 26 0 27 -1 21 -47 -3 -27 -8 -74 -11
-106 l-7 -58 -36 7 c-139 25 -192 90 -192 236 0 51 8 72 78 210 170 333 332
545 420 547 13 1 34 -11 48 -26z m3187 -89 c4 -4 -30 -47 -76 -97 -45 -49
-100 -110 -123 -135 l-41 -46 -25 20 c-14 10 -64 55 -112 99 -99 91 -100 86
24 125 99 30 334 53 353 34z m-1003 -189 c0 -3 -41 -66 -90 -140 l-90 -135
-73 36 c-39 20 -110 57 -156 82 l-84 45 89 33 c49 18 116 44 149 58 50 21 76
25 158 26 53 0 97 -2 97 -5z m-1560 -555 c24 -110 42 -201 39 -203 -2 -1 -159
-24 -349 -51 -190 -26 -353 -50 -362 -53 -15 -4 -18 3 -18 46 l0 50 56 16 c80
23 149 94 192 197 17 42 34 95 38 117 4 23 12 41 18 42 6 0 72 9 146 18 74 10
149 19 166 20 l30 1 44 -200z m-746 39 c6 -5 0 -277 -14 -687 -13 -373 -21
-686 -17 -695 4 -10 17 -17 34 -17 35 0 110 -34 141 -63 33 -30 57 -81 77
-158 9 -35 26 -75 38 -88 20 -22 27 -23 97 -18 102 8 155 -4 193 -42 28 -27
32 -39 35 -99 8 -138 -55 -181 -192 -133 -67 23 -137 70 -194 127 -31 32 -51
44 -72 44 -35 0 -66 -28 -77 -67 -8 -29 -9 -210 -3 -398 4 -99 2 -114 -18
-152 -25 -47 -78 -88 -134 -104 -50 -13 -71 -1 -93 53 -15 36 -18 76 -19 248
-1 113 -5 211 -9 217 -14 23 -54 15 -75 -14 -10 -16 -43 -74 -72 -131 -98
-191 -168 -283 -227 -298 -74 -19 -173 50 -173 121 0 61 35 108 148 197 153
121 209 198 183 254 -17 37 -52 30 -140 -30 -94 -64 -149 -85 -186 -68 -34 16
-58 57 -65 113 -12 93 41 137 196 164 62 11 95 22 112 38 105 95 260 284 267
322 3 17 26 239 51 495 24 256 53 555 64 665 11 110 20 205 20 211 0 12 110 7
124 -7z m3609 -544 c27 -86 30 -131 12 -158 -31 -48 -141 -111 -263 -151 -228
-75 -452 -71 -494 8 -6 11 -13 66 -16 122 -4 80 -2 102 9 106 8 3 79 18 159
33 80 16 237 47 350 70 146 30 208 38 216 31 7 -6 19 -33 27 -61z m-1772 -322
c37 -57 79 -163 79 -200 0 -14 -120 -72 -210 -101 -107 -35 -183 -52 -302 -68
-184 -24 -297 -5 -361 63 -28 30 -28 31 -18 107 5 43 12 80 15 83 7 7 712 150
747 152 20 1 32 -8 50 -36z m1458 -340 c17 -142 35 -277 38 -300 l6 -43 -99 0
c-55 0 -104 4 -110 8 -10 6 -25 119 -40 312 -3 41 -10 115 -14 165 -5 49 -8
91 -6 93 4 4 120 19 162 21 l30 1 33 -257z m-1909 -453 c0 -198 -1 -360 -2
-361 -15 -3 -208 -28 -223 -29 -19 0 -20 6 -18 202 2 112 5 281 9 376 l6 172
114 0 114 0 0 -360z m1966 0 c3 -30 12 -97 19 -149 8 -52 12 -98 9 -103 -7
-11 -85 -8 -164 6 l-65 11 -6 50 c-4 28 -10 94 -14 147 l-7 96 111 -1 110 -2
7 -55z m-67 -299 l106 -6 26 -208 c15 -114 29 -223 32 -242 5 -28 2 -37 -13
-45 -52 -28 -138 12 -211 100 -32 38 -39 55 -44 105 -3 33 -10 107 -15 164
-13 134 -13 154 1 145 7 -4 60 -10 118 -13z m-1904 -313 c-4 -106 -11 -197
-16 -203 -17 -18 -137 -18 -184 0 l-45 17 0 174 c0 96 1 174 3 175 16 5 181
27 210 28 l39 1 -7 -192z m-111 -268 c23 0 56 4 74 9 l32 10 0 -252 c0 -275
-6 -314 -51 -360 -29 -29 -32 -29 -105 -25 -41 3 -80 10 -85 15 -11 11 -13
503 -3 584 l6 46 46 -13 c25 -8 64 -14 86 -14z m2497 -236 c85 -81 -3 -237
-106 -188 -59 28 -82 103 -50 164 32 63 104 73 156 24z m-2640 -1025 c32 -34
44 -80 37 -144 -15 -126 -134 -154 -190 -44 -65 127 63 285 153 188z"/>
<path d="M4368 9453 c-21 -5 -22 -18 -4 -143 8 -52 13 -96 11 -98 -1 -1 -31
-11 -66 -21 -70 -20 -176 -67 -226 -101 l-31 -21 -77 111 c-49 72 -80 108 -88
103 -32 -19 -67 -48 -67 -55 0 -5 34 -57 75 -115 l75 -106 -59 -62 c-61 -63
-114 -140 -152 -218 l-23 -46 -60 57 c-71 66 -156 124 -224 154 -26 11 -48 21
-49 23 -2 1 15 55 37 120 22 66 40 120 40 121 0 2 -91 34 -96 34 -1 0 -19 -51
-39 -112 -21 -62 -40 -116 -44 -119 -3 -4 -40 0 -81 7 -42 8 -120 13 -175 12
l-100 -3 -3 123 -3 122 -54 0 -53 0 1 -136 2 -135 -50 -18 c-64 -23 -157 -71
-215 -110 l-45 -30 -91 96 -90 97 -40 -37 -39 -36 60 -63 c33 -35 73 -77 88
-94 l29 -32 -56 -71 c-68 -89 -107 -156 -140 -244 -82 -218 -71 -481 28 -689
42 -89 54 -101 79 -84 16 12 14 20 -27 107 -63 134 -80 210 -80 354 0 223 71
403 223 567 172 187 444 288 692 258 286 -35 523 -201 649 -455 62 -127 80
-193 87 -331 17 -326 -161 -631 -450 -774 -151 -75 -239 -94 -407 -88 -74 3
-148 11 -164 17 -31 13 -46 3 -46 -30 0 -33 203 -56 341 -39 292 35 548 209
679 462 l41 78 32 -33 c47 -48 114 -101 181 -141 l58 -35 -44 -19 c-23 -11
-69 -32 -100 -46 -57 -24 -66 -37 -49 -65 17 -26 434 182 593 296 70 51 143
120 221 212 16 18 54 45 85 59 49 23 70 27 152 27 79 0 102 -4 137 -23 103
-54 114 -157 31 -297 -48 -82 -166 -204 -257 -265 -129 -87 -348 -172 -526
-204 -96 -17 -380 -46 -451 -46 -23 0 -49 -3 -58 -6 -21 -8 -21 -54 0 -54 61
0 400 34 495 50 115 19 323 81 394 118 l39 19 63 -53 c69 -59 140 -99 222
-124 l53 -17 -88 -45 c-275 -141 -557 -234 -879 -290 -113 -20 -164 -23 -385
-22 -220 0 -272 3 -375 22 -286 53 -497 131 -748 274 -48 28 -90 55 -93 59 -3
5 13 12 36 15 34 6 40 10 40 30 0 20 -5 24 -30 24 -54 0 -135 -22 -193 -53
-52 -27 -177 -144 -177 -166 0 -4 10 -13 23 -18 20 -10 26 -7 47 24 27 39 89
93 136 116 l31 16 6 -147 c9 -208 54 -388 147 -587 141 -302 365 -556 676
-765 60 -41 85 -51 155 -64 281 -51 564 -40 784 30 172 55 341 168 435 289
l44 57 -29 146 c-15 81 -38 185 -51 232 -27 101 -25 104 67 114 l61 7 -4 235
-3 235 104 44 c108 47 322 155 355 180 13 10 17 21 12 38 -5 22 -12 25 -76 29
-85 6 -189 54 -264 119 l-48 42 49 30 c185 115 349 317 369 454 3 26 26 89 50
138 67 138 86 224 86 385 1 159 -20 257 -82 386 -87 181 -247 339 -426 421
-30 13 -54 28 -54 32 0 8 47 175 64 228 6 19 2 23 -35 33 -22 6 -47 9 -54 7
-6 -3 -25 -52 -40 -109 -38 -142 -36 -138 -87 -126 -24 5 -86 10 -140 11 l-96
2 -11 80 c-24 168 -19 155 -54 154 -18 -1 -40 -3 -49 -6z m373 -302 c320 -82
545 -307 621 -621 26 -106 27 -264 3 -365 -18 -75 -72 -215 -84 -215 -4 0 -14
13 -23 28 -9 16 -41 41 -70 58 -50 27 -59 29 -168 29 -110 0 -118 -1 -182 -33
-46 -22 -80 -48 -105 -80 -103 -126 -218 -215 -413 -320 l-95 -51 -63 34
c-122 65 -260 190 -247 223 19 51 35 166 35 258 0 174 -40 318 -131 469 l-41
67 16 42 c27 70 112 193 180 260 111 109 255 187 411 221 93 21 268 19 356 -4z
m2 -2488 c3 -109 4 -199 2 -201 -5 -5 -388 -62 -392 -58 -6 5 -34 296 -31 317
3 20 21 27 163 64 88 24 178 49 200 58 22 8 43 15 46 16 3 0 9 -88 12 -196z
m-683 20 c1 -55 11 -275 15 -315 l4 -48 -37 -1 c-20 0 -109 -6 -197 -13 -88
-7 -161 -12 -163 -11 -2 2 -5 41 -17 293 l-5 112 200 0 c184 0 200 -1 200 -17z
m221 -678 c87 -31 140 -94 173 -204 24 -83 23 -85 -50 -121 -86 -41 -130 -56
-239 -83 -123 -29 -469 -32 -614 -4 -114 21 -195 69 -375 220 l-21 17 42 38
c98 90 248 138 354 114 67 -16 169 -61 169 -76 0 -6 35 -29 78 -51 42 -21 98
-59 124 -83 40 -38 49 -42 67 -32 12 6 21 14 21 19 0 16 -106 107 -152 131
-27 14 -48 28 -48 32 0 10 143 67 207 82 79 19 210 20 264 1z"/>
<path d="M4290 8576 c-112 -25 -197 -94 -247 -201 -23 -50 -27 -73 -27 -141 0
-71 4 -90 32 -147 40 -81 112 -148 190 -177 84 -32 196 -26 275 15 119 60 188
174 188 310 0 174 -116 313 -285 344 -33 6 -62 11 -65 10 -3 0 -31 -6 -61 -13z
m195 -77 c105 -52 172 -171 161 -286 -9 -107 -68 -193 -164 -240 -78 -38 -174
-39 -247 -1 -190 99 -221 341 -62 484 27 24 70 51 96 59 63 20 157 14 216 -16z"/>
<path d="M4296 8400 c-43 -13 -95 -69 -107 -114 -29 -109 50 -215 161 -216 45
0 108 36 137 79 32 47 32 135 0 181 -40 60 -125 91 -191 70z"/>
<path d="M3133 8372 c-96 -34 -152 -84 -204 -182 -21 -39 -24 -58 -24 -150 0
-95 3 -110 27 -155 35 -67 99 -129 167 -163 48 -23 69 -27 141 -27 71 0 94 4
141 26 79 37 133 90 171 167 30 60 33 75 32 152 0 99 -26 169 -89 239 -84 93
-246 135 -362 93z m247 -78 c166 -90 199 -324 65 -459 -62 -62 -109 -80 -205
-80 -74 0 -91 3 -130 27 -25 14 -58 39 -74 55 -129 128 -98 356 61 454 78 49
197 50 283 3z"/>
<path d="M3165 8204 c-121 -67 -126 -234 -10 -302 32 -18 51 -22 93 -19 93 7
152 71 152 167 0 62 -22 106 -72 143 -37 27 -123 33 -163 11z"/>
<path d="M5570 4763 c-8 -2 -118 -25 -245 -51 l-230 -47 0 -65 c-1 -118 -16
-110 158 -78 282 51 370 68 374 72 2 2 1 41 -4 87 -8 85 -14 94 -53 82z"/>
<path d="M3249 4306 c-2 -2 -78 -21 -169 -41 -91 -20 -192 -42 -225 -50 -33
-7 -84 -19 -112 -25 l-53 -12 0 -41 c0 -23 -3 -66 -6 -94 -6 -49 -5 -53 13
-53 11 0 103 20 204 45 101 25 213 53 249 61 36 9 80 20 99 26 l33 10 -7 82
c-6 74 -14 103 -26 92z"/>
</g>
</svg>
